<?xml version="1.0" encoding="UTF-8" standalone="no"?>
<svg
   xmlns:dc="http://purl.org/dc/elements/1.1/"
   xmlns:cc="http://creativecommons.org/ns#"
   xmlns:rdf="http://www.w3.org/1999/02/22-rdf-syntax-ns#"
   xmlns:svg="http://www.w3.org/2000/svg"
   xmlns="http://www.w3.org/2000/svg"
   xmlns:sodipodi="http://sodipodi.sourceforge.net/DTD/sodipodi-0.dtd"
   xmlns:inkscape="http://www.inkscape.org/namespaces/inkscape"
   width="100"
   height="100"
   viewBox="0 0 26.458333 26.458334"
   version="1.1"
   id="svg8"
   inkscape:version="1.0.1 (3bc2e813f5, 2020-09-07)"
   sodipodi:docname="categoria.svg">
  <defs
     id="defs2">
    <inkscape:perspective
       sodipodi:type="inkscape:persp3d"
       inkscape:vp_x="0 : 13.229167 : 1"
       inkscape:vp_y="0 : 1000 : 0"
       inkscape:vp_z="26.836309 : -10.205357 : 1"
       inkscape:persp3d-origin="13.229166 : 8.8194447 : 1"
       id="perspective849" />
  </defs>
  <sodipodi:namedview
     id="base"
     pagecolor="#ffffff"
     bordercolor="#666666"
     borderopacity="1.0"
     inkscape:pageopacity="0.0"
     inkscape:pageshadow="2"
     inkscape:zoom="5.6"
     inkscape:cx="40.074433"
     inkscape:cy="85.68764"
     inkscape:document-units="mm"
     inkscape:current-layer="g1473-3-6-6-93"
     inkscape:document-rotation="0"
     showgrid="true"
     inkscape:window-width="1366"
     inkscape:window-height="745"
     inkscape:window-x="-8"
     inkscape:window-y="-8"
     inkscape:window-maximized="1"
     units="px">
    <inkscape:grid
       type="xygrid"
       id="grid939" />
  </sodipodi:namedview>
  <metadata
     id="metadata5">
    <rdf:RDF>
      <cc:Work
         rdf:about="">
        <dc:format>image/svg+xml</dc:format>
        <dc:type
           rdf:resource="http://purl.org/dc/dcmitype/StillImage" />
        <dc:title />
      </cc:Work>
    </rdf:RDF>
  </metadata>
  <g
     inkscape:label="Capa 1"
     inkscape:groupmode="layer"
     id="layer1">
    <g
       id="g959"
       transform="translate(0.60135644,-0.86862597)">
      <g
         id="g2055-6-2-5-3"
         transform="matrix(0.30700004,0,0,0.30700004,-62.280531,-1.856358)"
         style="display:inline">
        <g
           id="g1830-5-9-2-8-3"
           transform="translate(108.47917,19.843752)">
          <g
             aria-label="27"
             transform="scale(0.7245102,1.3802428)"
             id="text1257-3-6-6-0-6-1-9-4-8"
             style="font-weight:bold;font-size:3.89869px;line-height:0;font-family:sans-serif;-inkscape-font-specification:'sans-serif Bold';letter-spacing:-0.292486px;fill:#000000;stroke-width:0.0974661" />
        </g>
        <g
           id="g4033-7-9-44">
          <rect
             style="fill:#aaccff;stroke-width:3.27443;stroke-linecap:round;stroke-linejoin:bevel;stroke-dashoffset:27.5906"
             id="rect1850"
             width="77.56514"
             height="78.381317"
             x="205.21852"
             y="12.750051"
             ry="16.458017"
             rx="16.286642" />
          <g
             id="g1848"
             transform="matrix(2.1149946,0,0,1.4803482,-267.38852,-16.581988)">
            <g
               id="g1473-3-6-6-93"
               transform="translate(132.29162,101.86457)">
              <path
                 id="rect1285-8-9-1-3-8-64"
                 style="fill:#000000;fill-opacity:0.996078;stroke:#000000;stroke-width:0;stroke-linecap:round;stroke-linejoin:bevel;stroke-miterlimit:4;stroke-dasharray:none;stroke-dashoffset:25.166;stroke-opacity:1"
                 d="m 105.30418,-55.562504 h 8.99583 v 26.458334 h -8.99583 z" />
              <path
                 id="rect1259-8-3-1-4-8-5"
                 style="fill:#ffffff;fill-opacity:0.996078;stroke:#000000;stroke-width:0;stroke-linecap:round;stroke-linejoin:bevel;stroke-miterlimit:4;stroke-dasharray:none;stroke-dashoffset:25.166;stroke-opacity:1"
                 d="m 105.83334,-55.562504 h 7.9375 v 26.202813 h -7.9375 z" />
              <path
                 id="rect1243-7-3-1-5-2-3"
                 style="fill:#ff0000;fill-opacity:0.996078;stroke:#000000;stroke-width:0;stroke-linecap:round;stroke-linejoin:bevel;stroke-miterlimit:4;stroke-dasharray:none;stroke-dashoffset:25.166;stroke-opacity:1"
                 d="m 105.83334,-55.562501 v 0.264583 h 3.96875 v 1.058333 h 1.32292 v 1.322917 h -1.32292 v 1.322916 h 1.32292 v 1.322917 h 1.32292 v -5.027083 h 1.32291 v -0.264583 h -1.32291 -2.64584 z m 3.96875,7.937499 v 1.322917 h 1.32292 v -1.322917 z m 0,2.645834 v 1.322916 h 1.32292 v -1.322916 z" />
              <path
                 id="rect1247-7-6-7-9-9-1"
                 style="fill:#ff0000;fill-opacity:0.996078;stroke:#000000;stroke-width:0;stroke-linecap:round;stroke-linejoin:bevel;stroke-miterlimit:4;stroke-dasharray:none;stroke-dashoffset:25.166;stroke-opacity:1"
                 d="m 109.80209,-50.270836 h 2.64584 v 1.322917 h -2.64584 z" />
              <g
                 aria-label="19"
                 transform="scale(0.7245102,1.3802428)"
                 id="text1257-3-6-6-6-5-1"
                 style="font-weight:bold;font-size:3.89869px;line-height:0;font-family:sans-serif;-inkscape-font-specification:'sans-serif Bold';letter-spacing:-0.292486px;fill:#ff0000;stroke-width:0.0974661">
                <path
                   d="m 146.69681,-31.668637 h 0.64724 v -1.837029 l -0.66438,0.137063 v -0.498758 l 0.66057,-0.137063 h 0.69674 v 2.335787 h 0.64725 v 0.506373 h -1.98742 z"
                   style="font-style:normal;font-variant:normal;font-weight:bold;font-stretch:normal;font-family:Technic;-inkscape-font-specification:'Technic Bold';fill:#ff0000;stroke-width:0.0974661"
                   id="path3291-6-8-4" />
                <path
                   d="m 149.0504,-31.225085 v -0.525409 q 0.17514,0.08186 0.33505,0.123738 0.15991,0.03998 0.31601,0.03998 0.32742,0 0.51018,-0.180848 0.18275,-0.182751 0.21511,-0.540639 -0.12945,0.09518 -0.27603,0.142775 -0.14658,0.04759 -0.31791,0.04759 -0.43594,0 -0.70436,-0.253186 -0.26651,-0.25509 -0.26651,-0.670088 0,-0.458781 0.29697,-0.734811 0.29888,-0.276031 0.79954,-0.276031 0.55587,0 0.86045,0.375021 0.30459,0.37502 0.30459,1.060337 0,0.704353 -0.35599,1.107929 -0.35598,0.401671 -0.97657,0.401671 -0.19989,0 -0.38264,-0.03046 -0.18275,-0.02855 -0.35789,-0.08757 z m 0.90424,-1.368729 q 0.19227,0 0.28936,-0.123738 0.0971,-0.125641 0.0971,-0.37502 0,-0.247476 -0.0971,-0.373117 -0.0971,-0.125641 -0.28936,-0.125641 -0.19227,0 -0.28935,0.125641 -0.0971,0.125641 -0.0971,0.373117 0,0.249379 0.0971,0.37502 0.0971,0.123738 0.28935,0.123738 z"
                   style="font-style:normal;font-variant:normal;font-weight:bold;font-stretch:normal;font-family:Technic;-inkscape-font-specification:'Technic Bold';fill:#ff0000;stroke-width:0.0974661"
                   id="path3293-6-6-15" />
              </g>
              <path
                 id="rect1243-0-3-7-1-37-8-7"
                 style="fill:#ff0000;fill-opacity:0.996078;stroke:#000000;stroke-width:0;stroke-linecap:round;stroke-linejoin:bevel;stroke-miterlimit:4;stroke-dasharray:none;stroke-dashoffset:25.166;stroke-opacity:1"
                 d="m 113.77085,-42.333334 v 0.264582 h -3.96875 v 1.058333 h -1.32292 v 1.322918 h 1.32292 v 1.322917 h -1.32292 v 1.322915 h -1.32292 v -5.027083 h -1.32292 v -0.264582 h 1.32292 2.64584 z m -3.96875,7.937501 v 1.322915 h -1.32292 v -1.322915 z m 0,2.645833 v 1.322917 h -1.32292 V -31.75 Z" />
              <g
                 aria-label="18"
                 transform="scale(0.7245102,1.3802428)"
                 id="text1257-0-3-8-5-69-9-01"
                 style="font-weight:bold;font-size:3.89869px;line-height:0;font-family:sans-serif;-inkscape-font-specification:'sans-serif Bold';letter-spacing:-0.292486px;fill:#ff0000;stroke-width:0.0974661"
                 inkscape:transform-center-x="2.1733631"
                 inkscape:transform-center-y="-5.5751488">
                <path
                   d="m 152.18866,-22.252917 h 0.64724 v -1.837029 l -0.66437,0.137063 v -0.498758 l 0.66056,-0.137063 h 0.69674 v 2.335787 h 0.64725 v 0.506373 h -1.98742 z"
                   style="font-style:normal;font-variant:normal;font-weight:bold;font-stretch:normal;font-family:Technic;-inkscape-font-specification:'Technic Bold';fill:#ff0000;stroke-width:0.0974661"
                   id="path3296-1-9-8" />
                <path
                   d="m 155.50931,-23.018187 q -0.20559,0 -0.316,0.112316 -0.11041,0.112316 -0.11041,0.321718 0,0.209402 0.11041,0.321718 0.11041,0.110412 0.316,0.110412 0.2037,0 0.3122,-0.110412 0.10851,-0.112316 0.10851,-0.321718 0,-0.211306 -0.10851,-0.321718 -0.1085,-0.112316 -0.3122,-0.112316 z m -0.53492,-0.241764 q -0.2589,-0.07805 -0.39025,-0.239861 -0.13136,-0.161811 -0.13136,-0.403576 0,-0.359791 0.26842,-0.548253 0.26842,-0.188462 0.78811,-0.188462 0.5159,0 0.78431,0.188462 0.26842,0.186559 0.26842,0.548253 0,0.241765 -0.13326,0.403576 -0.13135,0.161811 -0.39025,0.239861 0.28936,0.07995 0.43594,0.260801 0.14848,0.178943 0.14848,0.45307 0,0.422612 -0.28174,0.639629 -0.27984,0.215113 -0.8319,0.215113 -0.55396,0 -0.8376,-0.215113 -0.28175,-0.217017 -0.28175,-0.639629 0,-0.274127 0.14659,-0.45307 0.14848,-0.180848 0.43784,-0.260801 z m 0.17133,-0.569194 q 0,0.169426 0.0933,0.260801 0.0952,0.09138 0.27032,0.09138 0.17133,0 0.26461,-0.09138 0.0933,-0.09137 0.0933,-0.260801 0,-0.169425 -0.0933,-0.258897 -0.0933,-0.09138 -0.26461,-0.09138 -0.17513,0 -0.27032,0.09138 -0.0933,0.09138 -0.0933,0.258897 z"
                   style="font-style:normal;font-variant:normal;font-weight:bold;font-stretch:normal;font-family:Technic;-inkscape-font-specification:'Technic Bold';fill:#ff0000;stroke-width:0.0974661"
                   id="path3298-6-1-1" />
              </g>
            </g>
            <path
               id="rect1795-45-9-4"
               style="fill:#ff0000;fill-opacity:0.996078;stroke:#000000;stroke-width:0;stroke-linecap:round;stroke-linejoin:bevel;stroke-miterlimit:4;stroke-dasharray:none;stroke-dashoffset:25.166;stroke-opacity:1"
               d="m 239.44789,64.822912 h 2.64584 v 1.322916 h -2.64584 z" />
            <g
               id="g1830-5-3-4-3-3-5-2"
               transform="translate(108.47917,99.218746)">
              <path
                 id="rect1285-8-9-1-4-8-9-5-4-5-0-8"
                 style="fill:#000000;fill-opacity:0.996078;stroke:#000000;stroke-width:0;stroke-linecap:round;stroke-linejoin:bevel;stroke-miterlimit:4;stroke-dasharray:none;stroke-dashoffset:25.166;stroke-opacity:1"
                 d="m 129.11667,-79.375 h 8.99583 v 26.458334 h -8.99583 z" />
              <path
                 id="rect1259-8-3-1-3-2-4-6-2-3-5-5"
                 style="fill:#ffffff;fill-opacity:0.996078;stroke:#000000;stroke-width:0;stroke-linecap:round;stroke-linejoin:bevel;stroke-miterlimit:4;stroke-dasharray:none;stroke-dashoffset:25.166;stroke-opacity:1"
                 d="m 129.64583,-79.375 h 7.9375 v 26.458336 h -7.9375 z" />
              <path
                 id="rect1243-7-3-1-3-1-2-9-5-5-8-9"
                 style="fill:#000000;fill-opacity:0.996078;stroke:#000000;stroke-width:0;stroke-linecap:round;stroke-linejoin:bevel;stroke-miterlimit:4;stroke-dasharray:none;stroke-dashoffset:25.166;stroke-opacity:1"
                 d="m 129.64583,-79.374999 v 0.264583 h 3.96875 v 1.058333 h 1.32292 v 1.322917 h -1.32292 v 1.322916 h 1.32292 v 1.322917 h 1.32292 v -5.027083 h 1.32291 v -0.264583 h -1.32291 -2.64584 z m 3.96875,7.937499 v 1.322917 h 1.32292 V -71.4375 Z m 0,2.645834 v 1.322916 h 1.32292 v -1.322916 z" />
              <path
                 id="rect1247-7-6-7-8-0-4-2-1-1-6-9"
                 style="fill:#000000;fill-opacity:0.996078;stroke:#000000;stroke-width:0;stroke-linecap:round;stroke-linejoin:bevel;stroke-miterlimit:4;stroke-dasharray:none;stroke-dashoffset:25.166;stroke-opacity:1"
                 d="m 133.61458,-74.083336 h 2.64583 v 1.322917 h -2.64583 z" />
              <g
                 aria-label="21"
                 transform="scale(0.7245102,1.3802428)"
                 id="text1257-3-6-6-0-6-4-2-3-6-8-5"
                 style="font-weight:bold;font-size:3.89869px;line-height:0;font-family:sans-serif;-inkscape-font-specification:'sans-serif Bold';letter-spacing:-0.292486px;fill:#000000;stroke-width:0.0974661">
                <path
                   d="m 180.23011,-48.953396 h 1.2507 v 0.538735 h -2.06547 v -0.538735 l 1.03749,-0.91566 q 0.13897,-0.125641 0.2056,-0.245571 0.0666,-0.119931 0.0666,-0.249379 0,-0.199884 -0.13516,-0.321718 -0.13326,-0.121835 -0.35599,-0.121835 -0.17133,0 -0.37502,0.07424 -0.20369,0.07234 -0.43593,0.217017 v -0.6244 q 0.24747,-0.08186 0.48924,-0.123737 0.24176,-0.04378 0.47401,-0.04378 0.51018,0 0.79192,0.224631 0.28364,0.224632 0.28364,0.626303 0,0.232247 -0.11993,0.434034 -0.11993,0.199884 -0.50447,0.536832 z"
                   style="font-style:normal;font-variant:normal;font-weight:bold;font-stretch:normal;font-family:Technic;-inkscape-font-specification:'Technic Bold';fill:#000000;stroke-width:0.0974661"
                   id="path3546-6-4-5" />
                <path
                   d="m 181.98405,-48.921034 h 0.64725 v -1.837029 l -0.66438,0.137063 v -0.498758 l 0.66057,-0.137064 h 0.69674 v 2.335788 h 0.64724 v 0.506373 h -1.98742 z"
                   style="font-style:normal;font-variant:normal;font-weight:bold;font-stretch:normal;font-family:Technic;-inkscape-font-specification:'Technic Bold';fill:#000000;stroke-width:0.0974661"
                   id="path3548-3-2-7" />
              </g>
              <path
                 id="rect1243-0-3-7-1-98-5-8-6-7-8-4-9"
                 style="fill:#000000;fill-opacity:0.996078;stroke:#000000;stroke-width:0;stroke-linecap:round;stroke-linejoin:bevel;stroke-miterlimit:4;stroke-dasharray:none;stroke-dashoffset:25.166;stroke-opacity:1"
                 d="m 137.58334,-66.145832 v 0.264582 h -3.96875 v 1.058333 h -1.32292 v 1.322918 h 1.32292 v 1.322917 h -1.32292 v 1.322915 h -1.32292 v -5.027083 h -1.32292 v -0.264582 h 1.32292 2.64584 z m -3.96875,7.937501 v 1.322915 h -1.32292 v -1.322915 z m 0,2.645833 v 1.322917 h -1.32292 v -1.322917 z" />
              <g
                 aria-label="20"
                 transform="scale(0.7245102,1.3802428)"
                 id="text1257-0-3-8-5-68-2-9-9-4-2-1-6"
                 style="font-weight:bold;font-size:3.89869px;line-height:0;font-family:sans-serif;-inkscape-font-specification:'sans-serif Bold';letter-spacing:-0.292486px;fill:#000000;stroke-width:0.0974661"
                 inkscape:transform-center-x="2.1733631"
                 inkscape:transform-center-y="-5.5751488">
                <path
                   d="m 185.72196,-39.537678 h 1.2507 v 0.538735 h -2.06547 v -0.538735 l 1.0375,-0.915659 q 0.13896,-0.125642 0.20559,-0.245572 0.0666,-0.119931 0.0666,-0.249379 0,-0.199884 -0.13516,-0.321718 -0.13326,-0.121834 -0.35598,-0.121834 -0.17133,0 -0.37502,0.07424 -0.2037,0.07234 -0.43594,0.217017 v -0.624399 q 0.24747,-0.08186 0.48924,-0.123738 0.24176,-0.04378 0.47401,-0.04378 0.51018,0 0.79192,0.224631 0.28364,0.224632 0.28364,0.626303 0,0.232247 -0.11993,0.434034 -0.11993,0.199884 -0.50446,0.536832 z"
                   style="font-style:normal;font-variant:normal;font-weight:bold;font-stretch:normal;font-family:Technic;-inkscape-font-specification:'Technic Bold';fill:#000000;stroke-width:0.0974661"
                   id="path3551-6-5-8" />
                <path
                   d="m 188.81227,-40.422879 q 0,-0.533024 -0.10089,-0.750041 -0.099,-0.21892 -0.33505,-0.21892 -0.23605,0 -0.33694,0.21892 -0.1009,0.217017 -0.1009,0.750041 0,0.538735 0.1009,0.759559 0.10089,0.220825 0.33694,0.220825 0.23415,0 0.33505,-0.220825 0.10089,-0.220824 0.10089,-0.759559 z m 0.73291,0.0057 q 0,0.706257 -0.30459,1.090796 -0.30458,0.382635 -0.86426,0.382635 -0.56158,0 -0.86616,-0.382635 -0.30459,-0.384539 -0.30459,-1.090796 0,-0.70816 0.30459,-1.090796 0.30458,-0.384538 0.86616,-0.384538 0.55968,0 0.86426,0.384538 0.30459,0.382636 0.30459,1.090796 z"
                   style="font-style:normal;font-variant:normal;font-weight:bold;font-stretch:normal;font-family:Technic;-inkscape-font-specification:'Technic Bold';fill:#000000;stroke-width:0.0974661"
                   id="path3553-4-8-5" />
              </g>
              <path
                 id="rect1793-5-4-1-3-5-2-0"
                 style="fill:#000000;fill-opacity:0.996078;stroke:#000000;stroke-width:0;stroke-linecap:round;stroke-linejoin:bevel;stroke-miterlimit:4;stroke-dasharray:none;stroke-dashoffset:25.166;stroke-opacity:1"
                 d="m 130.96875,-60.854164 h 2.64583 v 1.322917 h -2.64583 z" />
            </g>
          </g>
        </g>
      </g>
    </g>
  </g>
</svg>
